<svg xmlns="http://www.w3.org/2000/svg" viewBox="0 0 400 500" width="800" height="1000">
<ellipse cx="200" cy="468" rx="86" ry="10" fill="#3B2E25" fill-opacity="0.14"/>
<rect x="176" y="78" width="48" height="26" rx="7" fill="#1F1B18"/>
<rect x="136" y="84" width="48" height="11" rx="5.5" fill="#1F1B18"/>
<rect x="194" y="100" width="12" height="32" fill="#2A2521"/>
<rect x="170" y="128" width="60" height="30" rx="6" fill="#1F1B18"/>
<rect x="176" y="134" width="3" height="18" rx="1.5" fill="#FFFFFF" fill-opacity="0.18"/>
<rect x="186" y="134" width="3" height="18" rx="1.5" fill="#FFFFFF" fill-opacity="0.12"/>
<rect x="180" y="154" width="40" height="30" rx="4" fill="#8C5319"/>
<rect x="128" y="176" width="144" height="290" rx="38" fill="#A5641F"/>
<rect x="144" y="206" width="11" height="236" rx="5.5" fill="#FFFFFF" fill-opacity="0.24"/>
<rect x="246" y="200" width="14" height="246" rx="7" fill="#3B2E25" fill-opacity="0.16"/>
<rect x="142" y="262" width="116" height="132" rx="6" fill="#F2E7DC"/>
<g transform="translate(182 280) scale(0.0131)"><rect x="262" y="0" width="2228" height="426" rx="213" fill="#4A6470"/><rect x="0" y="544" width="2752" height="426" rx="213" fill="#877161"/><rect x="262" y="1088" width="2228" height="426" rx="213" fill="#CC8062"/><rect x="590" y="1632" width="1573" height="426" rx="213" fill="#FFD6B3"/></g>
<rect x="164" y="324" width="72" height="5" rx="2.5" fill="#3B2E25" fill-opacity="0.75"/>
<rect x="172" y="335" width="56" height="4" rx="2" fill="#6A5E4D" fill-opacity="0.6"/>
<rect x="180" y="345" width="40" height="4" rx="2" fill="#6A5E4D" fill-opacity="0.45"/>
<rect x="142" y="376" width="116" height="18" fill="#CC8062"/>
</svg>
